{"title":"Indiana Jones and the Kingdom of the Crystal Skull(2008)","uid":12973953,"size":1218878446,"categoryP":"video","categoryS":"movies","magnet":"?xt=urn:btih:9614d59e41d52cce775a848704298e0220d8360c&amp;dn=Indiana+Jones+and+the+Kingdom+of+the+Crystal+Skull%282008%29&amp;tr=udp%3A%2F%2Ftracker.leechers-paradise.org%3A6969&amp;tr=udp%3A%2F%2Fzer0day.ch%3A1337&amp;tr=udp%3A%2F%2Fopen.demonii.com%3A1337&amp;tr=udp%3A%2F%2Ftracker.coppersurfer.tk%3A6969&amp;tr=udp%3A%2F%2Fexodus.desync.com%3A6969","seeders":0,"leechers":1,"uploader":"dascuba","files":1,"time":1449969193,"description":"Famed archaeologist/adventurer Dr. Henry &quot;Indiana&quot; Jones is called back into action when he becomes entangled in a Soviet plot to uncover the secret behind mysterious artifacts known as the Crystal Skulls.\r\nDirector: Steven Spielberg\r\nWriters: David Koepp (screenplay), George Lucas (story) | 3 more credits »\r\nStars: Harrison Ford, Cate Blanchett, Shia LaBeouf\r\n\r\n General\r\nComplete name                            :Indiana Jones and the Kingdom of the Crystal SkullINDIANA_JONES_4_AC_Title4.mp4\r\nFormat                                   : MPEG-4\r\nFormat profile                           : Base Media\r\nCodec ID                                 : isom\r\nFile size                                : 1.14 GiB\r\nDuration                                 : 2h 2mn\r\nOverall bit rate                         : 1 327 Kbps\r\nMovie name                               : INDIANA_JONES_4_AC\r\nGenre                                    : Action\r\nWriting application                      : Lavf54.6.100\r\n\r\nVideo\r\nID                                       : 1\r\nFormat                                   : AVC\r\nFormat/Info                              : Advanced Video Codec\r\nFormat profile                           :   \r\nFormat settings, CABAC                   : No\r\nFormat settings, ReFrames                : 6 frames\r\nCodec ID                                 : avc1\r\nCodec ID/Info                            : Advanced Video Coding\r\nDuration                                 : 2h 2mn\r\nBit rate                                 : 1 193 Kbps\r\nWidth                                    : 720 pixels\r\nHeight                                   : 404 pixels\r\nDisplay aspect ratio                     : 16:9\r\nFrame rate mode                          : Constant\r\nFrame rate                               : 29.970 fps\r\nColor space                              : YUV\r\nChroma subsampling                       : 4:2:0\r\nBit depth                                : 8 bits\r\nScan type                                : Progressive\r\nBits/(Pixel*Frame)                       : 0.137\r\nStream size                              : 1.02 GiB (90%)\r\n\r\nAudio\r\nID                                       : 2\r\nFormat                                   : AAC\r\nFormat/Info                              : Advanced Audio Codec\r\nFormat profile                           : LC\r\nCodec ID                                 : 40\r\nDuration                                 : 2h 2mn\r\nBit rate mode                            : Constant\r\nBit rate                                 : 128 Kbps\r\nChannel(s)                               : 2 channels\r\nChannel positions                        : Front: L R\r\nSampling rate                            : 44.1 KHz\r\nCompression mode                         : Lossy\r\nStream size                              : 112 MiB (10%)","torrent":{"xt":"urn:btih:9614d59e41d52cce775a848704298e0220d8360c","amp;dn":"Indiana+Jones+and+the+Kingdom+of+the+Crystal+Skull%282008%29","amp;tr":["udp%3A%2F%2Ftracker.leechers-paradise.org%3A6969","udp%3A%2F%2Fzer0day.ch%3A1337","udp%3A%2F%2Fopen.demonii.com%3A1337","udp%3A%2F%2Ftracker.coppersurfer.tk%3A6969","udp%3A%2F%2Fexodus.desync.com%3A6969"],"infoHash":"9614d59e41d52cce775a848704298e0220d8360c","infoHashBuffer":{"type":"Buffer","data":[150,20,213,158,65,213,44,206,119,90,132,135,4,41,142,2,32,216,54,12]},"announce":[],"urlList":[]}}